<?xml version="1.0" encoding="UTF-8" standalone="no"?>
<!-- Created with Inkscape (http://www.inkscape.org/) -->

<svg
   xmlns:dc="http://purl.org/dc/elements/1.1/"
   xmlns:cc="http://creativecommons.org/ns#"
   xmlns:rdf="http://www.w3.org/1999/02/22-rdf-syntax-ns#"
   xmlns:svg="http://www.w3.org/2000/svg"
   xmlns="http://www.w3.org/2000/svg"
   xmlns:sodipodi="http://sodipodi.sourceforge.net/DTD/sodipodi-0.dtd"
   xmlns:inkscape="http://www.inkscape.org/namespaces/inkscape"
   width="30"
   height="30"
   viewBox="0 0 30 30"
   inkscape:version="0.91 r13725"
   version="0.0"
   sodipodi:docname="search-icon.svg">
  <defs />
  <sodipodi:namedview
     inkscape:pageopacity="0.0"
     inkscape:pageshadow="2"
     inkscape:zoom="11.525841"
     inkscape:cx="14.142136"
     inkscape:cy="10.101525"
     inkscape:document-units="px"
     inkscape:window-width="1440"
     inkscape:window-height="837"
     inkscape:window-x="-8"
     inkscape:window-y="-8"
     inkscape:window-maximized="1">
    <inkscape:grid />
  </sodipodi:namedview>
  <metadata>
    <rdf:RDF>
      <cc:Work
         rdf:about="">
        <dc:format>image/svg+xml</dc:format>
        <dc:type
           rdf:resource="http://purl.org/dc/dcmitype/StillImage" />
        <dc:title></dc:title>
      </cc:Work>
    </rdf:RDF>
  </metadata>
  <g
     inkscape:label="Capa 1"
     inkscape:groupmode="layer">
    <path
       d="M 13.515625,7.5 C 10.20479,7.5 7.5000057,10.204725 7.5,13.515625 c -5.97e-5,3.3108 2.704745,6.015625 6.015625,6.015625 1.313713,0 2.52777,-0.43177 3.519531,-1.152344 L 21.15625,22.5 22.5,21.158203 18.378906,17.037109 C 19.100377,16.044987 19.531274,14.830208 19.53125,13.515625 19.531244,10.204725 16.82646,7.5 13.515625,7.5 Z m 0,1.9003906 c 2.284255,0 4.11523,1.8309344 4.115234,4.1152344 4.2e-5,2.2842 -1.830947,4.115234 -4.115234,4.115234 -2.284287,0 -4.1152755,-1.831034 -4.1152344,-4.115234 3.9e-6,-2.2843 1.8309794,-4.1152344 4.1152344,-4.1152344 z"
       inkscape:connector-curvature="0" />
  </g>
</svg>
